<?xml version="1.0" encoding="UTF-8"?>
<svg id="Layer_1" data-name="Layer 1" xmlns="http://www.w3.org/2000/svg" viewBox="0 0 1200 1200">
  <defs>
    <style>
      .cls-1 {
        fill: #fbd8c1;
      }

      .cls-2 {
        fill: transparent;
      }

      .cls-3 {
        fill: #fefbef;
      }

      .cls-4 {
        fill: #152b21;
      }
    </style>
  </defs>
  <path class="cls-2" d="m0,0h1200v1200H0c0-400,0-800,0-1200Zm426.05,288c-7.8-1.61-15.39-4.18-23.44-4.59-26.27-1.34-50.04,4.67-68.92,24.1-15.89,16.35-22.84,36.69-24.45,59-1.53,21.24,2.14,41.32,15.02,58.94,1.62,2.21,1.82,4.46,1.56,7.05-1.66,16.43-4.58,32.64-8.24,48.72-.31,1.38.04,3.36-2.22,4.28-1.46-4.09-2.62-8.09-4.29-11.87-2.71-6.13-4.89-12.56-10.14-17.29-8.64-7.79-24.13-8.53-31.96-.31-5.7,5.99-8.27,13.98-8.82,22.35-.55,8.49-.59,17.03.71,25.44,3.39,21.94,2.97,43.79-.41,65.69-.57,3.72-1.82,5.7-5.37,7.25-20.55,8.96-36.14,23.54-47.01,43.08-15.97,28.7-15.1,59.61-8.38,89.96,13.37,60.4,38.78,116.2,69.05,169.92,17.53,31.11,39.63,58.51,65.69,82.79,19.83,18.47,40.56,35.71,65.7,46.7,10.93,4.78,22.29,7.61,34.29,8.19,16.99.82,33.98.68,50.97.58,45.05-.25,88.7-8.13,130.88-24.11,20.07-7.61,39.54-16.23,56.21-30.51.64,1.13,1.13,1.95,1.58,2.79,8.12,15.03,21.96,22.4,38.92,20.3,17.49-2.17,30.93-11.37,41.52-25.03,9.58-12.35,15.9-26.42,20.96-41.08,8.49-24.61,26.21-41.78,45.91-57.37,22.74-17.98,48.85-31.37,69.82-51.85,14.81-14.46,24.86-30.57,23-52.17-.13-1.57-.31-2.97,1.18-4.48,15.49-15.65,26.75-34.27,36.79-53.64,9.86-19.02,16.91-39.06,19.98-60.37.26-1.79.52-3.75,1.42-5.26,8.26-13.93,15.01-28.59,21.45-43.42,8.01-18.45,11.65-37.38,7.28-57.43-3.05-13.99-8.71-27.11-12.89-40.72-3.07-10-3.53-19.95-1.63-30.1,2.61-13.91,5.78-27.73,6.83-41.89.8-10.77,2.8-21.6.01-32.31-4.29-16.45-15.28-28.14-28.43-37.93-12.14-9.04-25.45-16.06-39.01-22.87-13.69-6.88-27.64-13.18-41.58-19.38-11.22-5-20.68-12.29-29.88-19.74-10.83-8.76-20.69-18.8-31.92-27.11-13.66-10.11-28.18-18.77-45.97-18.41-25.92.52-51.46,4.04-76.31,11.58-4.37,1.33-8.33,1.71-12.57.19-8.76-3.14-17.97-4.45-26.99-6.51-14.69-3.35-29.61-5.54-44.59-7.29-22.2-2.6-44.47-3.65-66.81-4.11-16.81-.35-32.58,3.17-47.76,10.07-4.28,1.95-8.69,3.64-13.32,5.56-3.41-8.85-7.51-16.72-11.76-24.58-9.99-18.45-23.97-32.89-41.07-44.63-2.91-2-5.95-3.4-9.16-.94-3.39,2.6-2.19,5.77-.8,9,6.68,15.61,13.13,31.32,18.54,47.42,3.31,9.85,6.54,19.72,9.08,30.96-2.85-3.27-4.82-5.71-6.98-7.97-14.16-14.86-30.7-24.39-52.05-23.07-2.97.18-5.73.53-6.71,3.96-1.07,3.75,1.4,5.46,4.07,7.07,14.99,9.06,25.8,21.87,33.54,37.44l-.09-.03Z"/>
  <path class="cls-4" d="m426.14,288.03c-7.74-15.56-18.55-28.38-33.54-37.44-2.68-1.62-5.14-3.33-4.07-7.07.98-3.43,3.74-3.77,6.71-3.96,21.36-1.32,37.89,8.21,52.05,23.07,2.16,2.26,4.13,4.71,6.98,7.97-2.55-11.24-5.78-21.11-9.08-30.96-5.41-16.11-11.86-31.81-18.54-47.42-1.38-3.23-2.59-6.4.8-9,3.21-2.46,6.25-1.06,9.16.94,17.1,11.74,31.09,26.18,41.07,44.63,4.25,7.86,8.35,15.72,11.76,24.58,4.64-1.93,9.04-3.62,13.32-5.56,15.18-6.9,30.95-10.42,47.76-10.07,22.34.46,44.61,1.52,66.81,4.11,14.98,1.75,29.9,3.94,44.59,7.29,9.02,2.06,18.23,3.37,26.99,6.51,4.24,1.52,8.2,1.13,12.57-.19,24.85-7.55,50.4-11.06,76.31-11.58,17.79-.36,32.31,8.3,45.97,18.41,11.23,8.31,21.09,18.35,31.92,27.11,9.2,7.45,18.66,14.74,29.88,19.74,13.94,6.21,27.89,12.51,41.58,19.38,13.57,6.82,26.87,13.84,39.01,22.87,13.16,9.79,24.14,21.48,28.43,37.93,2.79,10.7.79,21.54-.01,32.31-1.05,14.16-4.22,27.98-6.83,41.89-1.91,10.15-1.45,20.1,1.63,30.1,4.18,13.61,9.84,26.74,12.89,40.72,4.37,20.05.73,38.98-7.28,57.43-6.44,14.83-13.19,29.48-21.45,43.42-.89,1.51-1.16,3.47-1.42,5.26-3.07,21.32-10.12,41.35-19.98,60.37-10.04,19.37-21.3,37.99-36.79,53.64-1.49,1.51-1.32,2.91-1.18,4.48,1.86,21.6-8.19,37.71-23,52.17-20.97,20.48-47.07,33.87-69.82,51.85-19.71,15.58-37.42,32.76-45.91,57.37-5.06,14.66-11.38,28.73-20.96,41.08-10.6,13.66-24.03,22.87-41.52,25.03-16.95,2.1-30.79-5.27-38.92-20.3-.45-.84-.94-1.66-1.58-2.79-16.67,14.28-36.13,22.9-56.21,30.51-42.18,15.99-85.83,23.86-130.88,24.11-16.99.1-33.98.23-50.97-.58-11.99-.58-23.35-3.41-34.29-8.19-25.15-10.99-45.87-28.23-65.7-46.7-26.07-24.28-48.16-51.68-65.69-82.79-30.27-53.72-55.68-109.53-69.05-169.92-6.72-30.34-7.59-61.25,8.38-89.96,10.87-19.53,26.45-34.12,47.01-43.08,3.55-1.55,4.8-3.53,5.37-7.25,3.38-21.9,3.8-43.75.41-65.69-1.3-8.41-1.27-16.95-.71-25.44.55-8.37,3.12-16.36,8.82-22.35,7.83-8.23,23.32-7.48,31.96.31,5.25,4.74,7.43,11.16,10.14,17.29,1.67,3.78,2.83,7.78,4.29,11.87,2.27-.92,1.91-2.91,2.22-4.28,3.66-16.08,6.58-32.29,8.24-48.72.26-2.59.06-4.83-1.56-7.05-12.88-17.62-16.55-37.69-15.02-58.94,1.61-22.31,8.57-42.65,24.45-59,18.88-19.43,42.65-25.44,68.92-24.1,8.05.41,15.64,2.99,23.44,4.59,0,0,.11.18.11.18l-.02-.15Zm435.27,35.61c-.56-.84-1.3-1.39-2.32-1.52-4.95-1.75-8.53-5.56-12.15-8.96-11.81-11.09-23.59-22.2-35.85-32.81-12.39-10.73-26.22-17.57-43.09-17.18-9.99.23-20-.17-29.99-.06-6.21.07-12.42.56-18.65.86.14,2.16,1.73,2.17,2.6,2.46,8.28,2.72,16.06,6.59,24.07,9.97,21.94,9.26,41.87,21.79,60.84,35.97,21.29,15.92,39.61,34.79,55.08,56.39,14.33,20.01,25.75,41.53,33.46,64.98.69,2.09.9,3.54-1.1,4.59-2.15,1.13-3.42-.31-4.48-1.91-.64-.97-1.16-2.02-1.74-3.03-24.49-43.33-56.91-79.32-98.88-106.38-19.8-12.76-40.81-23.01-62.81-31.57-15.48-6.02-31.23-10.93-47.16-15.32-18.38-5.08-37.11-8.69-56.01-11.29-18.29-2.52-36.64-4.54-55.11-5.04-13.45-.36-26.92-2.08-40.3,1.25-11.18,2.78-21.93,6.7-32.79,10.71,2.07,10.37,2.3,20.26,1.7,30.7,13.23-5.45,25.93-10.14,39.41-12.61,29.29-5.38,57.91-1.22,86.26,5.82,13.25,3.29,25.97,8.48,38.26,14.51,15.6,7.65,30.03,17.1,43.14,28.54,21.4,18.67,38.55,40.19,45.77,68.35,2.13.43,3.44-1.13,4.96-2.02,7.64-4.47,15.57-8.09,24.36-9.76,15.28-2.9,30.02-1.45,44,5.45,14.67,7.25,25.1,18.98,33.19,32.88,12.34,21.18,18.65,44.31,20.73,68.53.78,9.09,1.41,17.29,11.29,21.24,1.75.7,3.1,2.48,4.56,3.84,18.6,17.39,25.53,40.23,29.11,64.3,3.41,22.89,1.86,45.81-2.43,68.49-3.12,16.52-7.65,32.68-14.52,48.08-2.34,5.25-5.22,10.27-7.79,15.28,3.03,2.83,5.75,5.37,8.59,8.02.85-1.23,1.57-2.15,2.16-3.14,11.27-18.86,20.76-38.55,28.29-59.21,5.79-15.88,11.54-31.97,12.44-48.84,2.04-38.22-.28-76.1-13.22-112.69-1.29-3.65-3.18-7.19-3.68-11.17-.24-1.92.11-3.55,1.8-4.14,1.45-.51,3.33-.65,4.51,1.06.76,1.09,1.57,2.15,2.33,3.24,15.24,21.87,23.4,46.56,28.72,72.37,2.04,9.88,2.75,19.96,4.04,30.78,1.12-2.27,2.47-3.2,2.94-4.91,1.9-6.99,3.85-13.98,6.06-20.88,4.01-12.52,3.61-25,.48-37.63-3.14-12.67-8.71-24.44-13.39-36.52-5.03-12.97-7.22-26-5.42-39.73,1.66-12.7,3.37-25.4,5.06-38.1.25-.22.27-.46.06-.72.24-1.98.61-3.95.7-5.93.3-6.81.9-13.64.63-20.43-.38-9.75-6.78-16.21-13.64-22.08-17.67-15.1-38.16-25.47-59.29-34.69-12.32-5.38-24.28-11.44-35.8-18.37Zm-418.1,41.94c-6.34,1.05-12.01,2.89-17.55,5.26-17.97,7.71-29.87,21.03-37.15,39.05-4.92,12.17-6.12,24.82-6.64,37.67-.24,5.96-2.47,8.48-8.12,8.23-7.82-.35-15.24-2.36-22.35-5.75-5.26-2.51-9.3-6.85-14.98-9.71-.1,1.88-.18,3.32-.25,4.76-1.12,23.58-5.2,46.7-10.03,69.78-2.4,11.45-5.38,22.72-8.59,33.93-3.13,10.92-8.05,21.29-11.58,32.05-3.66,11.16-10.04,13.23-20.99,12.34-13.39-1.09-24.92,5.48-34.94,14.29-17.89,15.72-27.19,35.28-27.29,59.28-.09,22.79,6.16,44.27,12.99,65.63,8.3,25.97,18.95,50.99,30.88,75.51,8.66,17.81,17.73,35.45,27.71,52.49,11.45,19.55,22.93,39.14,35.8,57.85,8.67,12.61,16.42,25.85,26.37,37.58,8.31,9.8,16.91,19.25,27.16,27.11,16.24,12.44,34.25,18.86,54.91,17.14,12.38-1.03,24.61-2.99,36.74-5.59,25.64-5.51,51.39-10.53,76.87-16.7,21.5-5.2,43.38-8.56,64.73-14.55,16.6-4.65,33.38-8.56,49.51-14.79,2.65-1.02,3.54-2.25,3.75-4.89,1.22-14.73,5.57-28.56,11.83-41.92,4.32-9.22,9.76-17.62,16.34-25.33,1.37-1.61,3.02-2.79,5.22-1.52,2.39,1.38,2.13,3.42,1.29,5.66-3.15,8.47-6.1,16.97-7.97,25.87-2.88,13.73-4.74,27.53-3.81,41.56.55,8.32,7.64,13.71,15.85,12.65,6.19-.8,11.63-3.4,16.66-6.9,10.81-7.54,18.1-18.12,24.33-29.38,9.06-16.36,18.53-32.33,31.82-45.77,12.45-12.6,26.24-23.58,40.03-34.59,17.07-13.63,33.74-27.7,48.23-44.14,8.08-9.17,13.78-19.5,15.91-31.73,1.59-9.16-2.64-16.37-11.82-18.3-9.17-1.92-17.47,1.3-25.57,5.19-14.48,6.94-26.53,17.66-40.23,25.8-16.48,9.8-34.01,15.4-53.47,13.5-1.86-.18-3.06-.9-4.16-2.17-4.26-4.92-1.68-8.73,1-13.62,6.36-11.61,9.95-24.37,12.13-37.45.91-5.44.34-5.93-5.36-5.9-5.67.03-11.36.21-16.93-1.05-5.21-1.18-6.99-6.09-3.86-10.33.79-1.07,1.78-1.98,2.67-2.97,12.24-13.56,18.75-29.47,19.31-47.72.29-9.5.8-18.95,2.26-28.36,2.98-19.22,8.29-37.7,16.76-55.27,5.72-11.86,12.23-23.22,20.4-33.7-5.98-2.27-11.82-4.1-17.31-6.69-5.52-2.6-10.6-6.12-15.12-10.25-22.68-20.7-35.2-46.48-37.79-77.01-.34-4.05-1.85-6.04-5.52-7.74-8.58-3.96-17.22-3.68-25.69-.73-19.74,6.87-33.53,19.54-37.66,40.91-.53,2.73-2.01,4.53-4.59,5.37-2.93.95-5.2-.35-7.13-2.41-10.64-11.4-18.23-24.69-24.38-38.92-4.63-10.72-7.45-21.94-9.33-34.07-1.26,1.4-2.05,2.21-2.77,3.08-11.9,14.45-20.54,30.69-25.71,48.63-3.64,12.63-5.19,25.63-5.37,38.81-.1,7.15-3.97,9.55-10.53,6.86-7.42-3.04-14.47-6.77-21.29-11.03-16.01-10-30.16-21.97-40.63-37.84-6.71-10.18-11.96-21.06-14.13-34.38-3.81,4.86-4.9,9.36-5.07,14.26-.21,6.12-4.75,9.17-9.69,6.22-18.34-10.94-30.58-26.83-36.32-47.32-4.18-14.92-3.08-30.1.21-45.81Zm-168.26,205.17c3.35,0,6.06-.3,8.67.08,3.19.45,4.29-.97,5.3-3.72,1.4-3.81,3.09-7.54,4.69-11.28,7.34-17.25,13.01-35.05,18.02-53.08.36-1.28.82-2.73-.4-3.59-8.79-6.21-13.67-15.71-20.24-23.78-1.1-1.36-2.24-3.1-4.95-1.92-1.48,6.31-1.33,12.95-.48,19.53,3.46,26.75,1.61,52.76-10.6,77.77Z"/>
  <path class="cls-1" d="m443.31,365.58c-3.29,15.71-4.38,30.89-.21,45.81,5.74,20.5,17.98,36.38,36.32,47.32,4.94,2.95,9.48-.1,9.69-6.22.17-4.89,1.26-9.39,5.07-14.26,2.16,13.32,7.41,24.2,14.13,34.38,10.47,15.88,24.62,27.84,40.63,37.84,6.82,4.26,13.87,7.99,21.29,11.03,6.56,2.69,10.44.28,10.53-6.86.18-13.18,1.73-26.18,5.37-38.81,5.17-17.95,13.81-34.18,25.71-48.63.72-.87,1.51-1.68,2.77-3.08,1.89,12.13,4.71,23.35,9.33,34.07,6.14,14.23,13.74,27.52,24.38,38.92,1.93,2.06,4.2,3.37,7.13,2.41,2.58-.84,4.06-2.64,4.59-5.37,4.14-21.37,17.93-34.04,37.66-40.91,8.47-2.95,17.11-3.23,25.69.73,3.67,1.69,5.17,3.69,5.52,7.74,2.59,30.53,15.11,56.31,37.79,77.01,4.52,4.13,9.6,7.65,15.12,10.25,5.49,2.58,11.33,4.42,17.31,6.69-8.17,10.47-14.68,21.83-20.4,33.7-8.47,17.57-13.78,36.04-16.76,55.27-1.46,9.41-1.98,18.86-2.26,28.36-.55,18.25-7.07,34.16-19.31,47.72-.89.99-1.89,1.9-2.67,2.97-3.13,4.24-1.34,9.16,3.86,10.33,5.57,1.26,11.26,1.08,16.93,1.05,5.7-.03,6.27.46,5.36,5.9-2.19,13.08-5.78,25.84-12.13,37.45-2.68,4.89-5.26,8.7-1,13.62,1.1,1.27,2.3,1.98,4.16,2.17,19.46,1.9,36.99-3.7,53.47-13.5,13.7-8.15,25.75-18.86,40.23-25.8,8.1-3.88,16.4-7.11,25.57-5.19,9.18,1.92,13.41,9.13,11.82,18.3-2.13,12.23-7.83,22.57-15.91,31.73-14.49,16.45-31.16,30.52-48.23,44.14-13.79,11.01-27.59,21.99-40.03,34.59-13.28,13.45-22.75,29.41-31.82,45.77-6.24,11.26-13.52,21.84-24.33,29.38-5.03,3.5-10.46,6.1-16.66,6.9-8.21,1.06-15.3-4.34-15.85-12.65-.93-14.03.94-27.83,3.81-41.56,1.86-8.9,4.82-17.4,7.97-25.87.83-2.24,1.09-4.27-1.29-5.66-2.2-1.27-3.85-.09-5.22,1.52-6.58,7.71-12.02,16.11-16.34,25.33-6.26,13.36-10.61,27.19-11.83,41.92-.22,2.64-1.11,3.87-3.75,4.89-16.13,6.23-32.92,10.14-49.51,14.79-21.35,5.98-43.23,9.34-64.73,14.55-25.48,6.17-51.23,11.19-76.87,16.7-12.13,2.61-24.35,4.56-36.74,5.59-20.66,1.72-38.67-4.71-54.91-17.14-10.26-7.86-18.85-17.31-27.16-27.11-9.95-11.73-17.7-24.97-26.37-37.58-12.86-18.7-24.35-38.3-35.8-57.85-9.98-17.04-19.05-34.68-27.71-52.49-11.92-24.52-22.57-49.55-30.88-75.51-6.83-21.35-13.07-42.83-12.99-65.63.09-24.01,9.4-43.56,27.29-59.28,10.02-8.81,21.55-15.38,34.94-14.29,10.95.89,17.33-1.18,20.99-12.34,3.53-10.76,8.45-21.12,11.58-32.05,3.21-11.21,6.19-22.47,8.59-33.93,4.83-23.07,8.91-46.2,10.03-69.78.07-1.44.15-2.87.25-4.76,5.68,2.87,9.72,7.2,14.98,9.71,7.11,3.39,14.53,5.41,22.35,5.75,5.65.25,7.88-2.28,8.12-8.23.51-12.85,1.72-25.5,6.64-37.67,7.28-18.02,19.18-31.34,37.15-39.05,5.54-2.38,11.21-4.21,17.55-5.26Zm24.46,253.6c2.58-1.58,2.29-4.55,4.06-6.21,4.3-4.05,6.54-9.74,8.48-14.72,3.94-10.14,7.87-20.45,9.7-31.38,4.53-27.03,2.86-53.18-10.7-77.6-9.24-16.63-22.4-29.08-41.58-32.75-17.29-3.31-34.14.13-49.72,8.06-20.96,10.66-34.84,28.15-45.13,48.87-4.02,8.09-6.65,16.63-8.78,25.34-4.35,17.83-5.44,35.84-1.98,54.73-5.05,0-9.68-.02-14.3,0-2.09.01-4.42.28-4.5,2.84-.07,2.29.7,4.51,3.87,4.73,1.59.11,3.14.99,4.67,1.62,10.69,4.45,21.37,8.95,32.06,13.4,11.39,4.74,22.8,9.44,34.74,14.38-6.7,8.72-9.91,18.18-10.77,28.48-1.42,17.05,2.37,32.81,11.56,47.3,4.84,7.64,10.56,14.34,18.35,19.09,1.76,1.07,3.66,2.14,5.4.22,1.79-1.97.34-3.62-.91-5.26-11.87-15.56-14.83-33.45-13.22-52.34,1.24-14.48,12.25-26.82,26.55-30.55,12.49-3.26,22.35,1.03,31.54,8.69,7.82,6.52,14.61,14.1,21.79,21.29,2.78,2.79,5.97,3.78,9.45,1.64,3.5-2.15,3.86-5.51,2.86-9.24-4.16-15.49-11.06-29.4-23.5-40.64Zm104.38,211.58c8.96,2.74,17.56,6.38,26.61,8.56,2,.48,3.65.75,4.58-1.45.85-2.01-.38-2.85-2.01-3.81-14.43-8.51-29.25-16.25-44.24-23.74-14.14-7.06-28.67-13.18-43.06-19.63-10.08-4.52-20.48-8.35-30.81-12.29-9.29-3.55-18.62-7.02-28.05-10.18-12.75-4.28-25.55-8.48-38.45-12.27-12.17-3.58-24.46-6.8-36.78-9.79-9.55-2.32-19.22-4.14-28.88-5.99-15.23-2.93-30.61-4.67-46.05-6.03-1.83-.16-3.39.16-3.92,2.17-.53,2.02.72,2.99,2.35,3.83,5.82,2.97,11.89,5.31,18.08,7.3,2.91.93,4.17,2.12,3.94,5.6-.74,11.31-.73,22.65.59,33.93,3.11,26.68,9.23,52.33,24.96,74.84,12.05,17.24,27.19,30.92,46.59,39.11,22.23,9.39,45.61,10.48,69.29,7.32,15.65-2.09,30.41-7.02,44.51-14.09,27.63-13.86,47.03-35.62,60.76-63.37Zm-31.69-165.71c-5.09,0-9.4-.03-13.71.01-2,.02-4.28-.09-4.84,2.48-.61,2.84,1.78,3.46,3.66,4.56,10.5,6.15,21.93,10.36,33.18,14.6,18.79,7.08,37.23,14.97,55.88,22.36,8.95,3.55,17.84,7.39,26.47,11.8,7.57,3.86,15.67,6.68,23.4,10.26,2.12.98,4.32,1.99,5.84.31,1.81-2,.57-4.26-1.22-6.11-3.78-3.92-7.46-7.93-11.29-12.01.8-.85,1.44-1.61,2.15-2.3,21.02-20.57,33.19-45.79,38.58-74.4,4.48-23.77,2.21-46.93-7.51-69.27-10.98-25.22-30.27-38.93-55.26-40.21-20.19-1.03-38.31,5.79-53.92,18.42-24.55,19.86-37.24,46.39-41.81,77.19-2.04,13.74-2.08,27.5.41,42.3Zm202.04-93.46c-.25-8.26-1.09-15.44-2.23-22.68-1.63-10.25-4.84-19.87-9.67-28.87-8-14.91-19.69-25.85-35.83-31.87-6.55-2.45-9.93-2.18-13.46,2.78-2.68,3.77-1.73,8.28,3.1,12.59,22.36,19.95,33.8,45.51,38.62,74.53,1.94,11.69,2.63,23.48,2.83,35.31.05,2.75-.03,5.76,3.46,6.25,3.34.47,3.82-2.12,4.97-4.82,6.03-14.17,7.64-29.06,8.21-43.22Zm23.48,271.27c12.63-10.01,25.93-19.03,39.79-27.24,2.43-1.44,6.13-2.65,4.99-6.46-1.14-3.83-4.9-3.29-8.03-3.35-.66-.01-1.33.03-1.99.1-16.51,1.78-31.82,6.93-45.47,16.51-5.65,3.97-9.97,9.18-12.79,15.55-2.73,6.16-1.81,10.18,3.07,13.66,8.75,6.23,8.75,14.27-.12,20.36-4.66,3.2-9.99,5.08-15.2,7.19-2.05.83-4.39,1.26-4.28,4.55.11,3.22,2.38,3.62,4.46,4.47,10.12,4.12,26.05.52,34.31-7.79,10.95-11.02,10.43-26.58,1.26-37.55Zm-282.87-87.64c6.32.48,12.58-1.58,18.36-4.86,10.52-5.97,17.35-14.44,16.55-27.31-.36-5.79-5.01-7.89-9.82-4.54-1.9,1.33-3.61,2.94-5.41,4.41-3.86,3.17-7.56,6.54-11.6,9.45-8.45,6.09-18.34,7.29-28.38,7.72-2.48.11-5.59-.36-6.54,2.42-1.12,3.27,2.25,4.38,4.25,5.93,6.49,5.04,13.96,7.01,22.59,6.78Zm91.53,23.39c-1.02-5.99-4.53-10.3-9.38-13.34-2.39-1.5-5.24-.8-7.24,1.41-1.8,1.99-2.6,4.54-1.09,6.86,2.13,3.29,4.58,6.4,7.19,9.32,1.95,2.18,4.6,2.3,7.33,1.2,2.58-1.04,2.61-3.52,3.18-5.46Zm53.11-31.02c-.28-.91-.46-2.1-.98-3.1-1.81-3.44-12.1-6.41-15.61-4.59-3.76,1.94-4.73,5.66-2.4,9.28,1.93,3.01,11.56,5.74,15.16,4.42,2.78-1.02,3.47-3.24,3.84-6.01Zm36.89,64.63c3,.06,5.85-1.28,5.98-4.11.21-4.82,5.84-9.74.23-14.47-2.2-1.86-4.92-1.89-7.43-.29-2.91,1.85-5.87,11.06-4.72,14.5.96,2.85,2.96,4.28,5.95,4.37Zm-392.77-125.82c3.62-.04,8.95-2.51,11.49-5.26,2.07-2.24,2.27-4.72.93-7.33-1.37-2.68-3.68-3.78-6.62-3.13-3.55.79-6.81,2.28-9.91,4.21-2.92,1.82-3.38,4.61-2.49,7.29.93,2.8,3.37,4.4,6.6,4.21Zm70.06-30.87c-.07-4.4-6.11-11.48-9.81-11.11-3.66.37-6.11,2.46-6.21,6.42-.13,4.99,5.24,11.06,9.65,11.04,3.39-.02,6.42-3.04,6.37-6.35Zm3.48,54.64c4.75.05,7.47-2.07,7.63-5.95.16-4.09-4.83-7.79-10.46-7.75-3.49.02-6.41,2.92-6.37,6.33.04,3.78,4.45,7.32,9.2,7.37Z"/>
  <path class="cls-3" d="m968.76,425.86c-1.69,12.7-3.39,25.4-5.06,38.1-1.8,13.73.39,26.76,5.42,39.73,4.68,12.07,10.25,23.85,13.39,36.52,3.13,12.63,3.53,25.11-.48,37.63-2.21,6.9-4.16,13.89-6.06,20.88-.47,1.71-1.81,2.64-2.94,4.91-1.29-10.83-2.01-20.9-4.04-30.78-5.32-25.81-13.48-50.49-28.72-72.37-.76-1.09-1.57-2.15-2.33-3.24-1.19-1.71-3.06-1.57-4.51-1.06-1.69.59-2.04,2.22-1.8,4.14.5,3.98,2.39,7.52,3.68,11.17,12.94,36.59,15.26,74.47,13.22,112.69-.9,16.87-6.65,32.96-12.44,48.84-7.53,20.65-17.02,40.35-28.29,59.21-.59.99-1.31,1.91-2.16,3.14-2.84-2.65-5.56-5.19-8.59-8.02,2.57-5.01,5.45-10.02,7.79-15.28,6.87-15.4,11.4-31.56,14.52-48.08,4.28-22.68,5.84-45.6,2.43-68.49-3.58-24.07-10.51-46.91-29.11-64.3-1.46-1.36-2.81-3.14-4.56-3.84-9.88-3.95-10.51-12.14-11.29-21.24-2.07-24.22-8.39-47.35-20.73-68.53-8.1-13.9-18.53-25.63-33.19-32.88-13.98-6.91-28.72-8.35-44-5.45-8.79,1.67-16.72,5.29-24.36,9.76-1.52.89-2.83,2.45-4.96,2.02-7.22-28.16-24.37-49.67-45.77-68.35-13.11-11.44-27.54-20.89-43.14-28.54-12.29-6.03-25-11.22-38.26-14.51-28.35-7.04-56.97-11.2-86.26-5.82-13.48,2.48-26.18,7.16-39.41,12.61.6-10.44.37-20.33-1.7-30.7,10.86-4.01,21.61-7.93,32.79-10.71,13.37-3.33,26.85-1.61,40.3-1.25,18.47.5,36.82,2.52,55.11,5.04,18.9,2.6,37.63,6.22,56.01,11.29,15.93,4.4,31.68,9.3,47.16,15.32,22.01,8.56,43.01,18.81,62.81,31.57,41.97,27.06,74.39,63.05,98.88,106.38.57,1.01,1.1,2.06,1.74,3.03,1.06,1.61,2.33,3.05,4.48,1.91,1.99-1.05,1.78-2.5,1.1-4.59-7.71-23.45-19.14-44.97-33.46-64.98-15.47-21.6-33.79-40.47-55.08-56.39-18.97-14.19-38.89-26.72-60.84-35.97-8-3.38-15.78-7.25-24.07-9.97-.87-.29-2.46-.29-2.6-2.46,6.23-.3,12.43-.79,18.65-.86,10-.11,20,.29,29.99.06,16.87-.39,30.69,6.45,43.09,17.18,12.25,10.61,24.04,21.72,35.85,32.81,3.62,3.4,7.19,7.21,12.14,8.96.23,1.34,1.07,1.74,2.32,1.52,11.52,6.93,23.48,12.99,35.8,18.37,21.13,9.22,41.62,19.59,59.29,34.69,6.87,5.87,13.27,12.33,13.64,22.08.26,6.79-.34,13.62-.63,20.43-.09,1.98-.46,3.96-.7,5.93-.1.06-.28.14-.27.18.04.19.14.37.21.55Z"/>
  <path class="cls-1" d="m275.05,570.75c12.21-25,14.06-51.02,10.6-77.77-.85-6.58-1.01-13.22.48-19.53,2.71-1.17,3.85.57,4.95,1.92,6.57,8.08,11.45,17.58,20.24,23.78,1.22.86.76,2.3.4,3.59-5.01,18.03-10.68,35.83-18.02,53.08-1.59,3.74-3.29,7.47-4.69,11.28-1.01,2.75-2.11,4.17-5.3,3.72-2.61-.37-5.31-.08-8.67-.08Z"/>
  <path class="cls-1" d="m861.41,323.64c-1.25.22-2.09-.18-2.32-1.52,1.02.13,1.77.68,2.32,1.52Z"/>
  <path class="cls-2" d="m426.14,288.03l.02.15s-.12-.19-.11-.18c0,0,.1.03.1.03Z"/>
  <path class="cls-1" d="m968.76,425.86c-.08-.18-.17-.36-.21-.55,0-.04.18-.12.27-.18.21.26.19.5-.06.72Z"/>
  <path class="cls-4" d="m467.77,619.18c12.45,11.24,19.34,25.14,23.5,40.64,1,3.73.65,7.09-2.86,9.24-3.48,2.14-6.67,1.14-9.45-1.64-7.17-7.19-13.97-14.77-21.79-21.29-9.19-7.66-19.05-11.96-31.54-8.69-14.3,3.74-25.32,16.07-26.55,30.55-1.61,18.89,1.36,36.79,13.22,52.34,1.25,1.63,2.7,3.28.91,5.26-1.74,1.92-3.65.85-5.4-.22-7.79-4.75-13.51-11.45-18.35-19.09-9.19-14.49-12.98-30.25-11.56-47.3.86-10.29,4.07-19.76,10.77-28.48-11.94-4.94-23.35-9.64-34.74-14.38-10.7-4.45-21.37-8.95-32.06-13.4-1.53-.64-3.08-1.51-4.67-1.62-3.18-.22-3.94-2.44-3.87-4.73.07-2.56,2.41-2.83,4.5-2.84,4.62-.02,9.25,0,14.3,0-3.45-18.89-2.36-36.89,1.98-54.73,2.12-8.71,4.76-17.24,8.78-25.34,10.29-20.71,24.17-38.21,45.13-48.87,15.58-7.93,32.43-11.37,49.72-8.06,19.18,3.67,32.35,16.12,41.58,32.75,13.56,24.42,15.23,50.56,10.7,77.6-1.83,10.93-5.76,21.25-9.7,31.38-1.94,4.98-4.18,10.68-8.48,14.72-1.77,1.66-1.48,4.63-4.06,6.21Zm.13-99.61c.26.02.53.04.79.05-.1-.23-.2-.46-.3-.69-2.82-9.39-6.46-18.37-12.77-26.04-7.99-9.71-17.97-15.42-30.82-15.09-17.96.47-33.44,7.1-46.29,19.58-18.34,17.81-28.94,39.89-34.47,64.54-2.35,10.48-3.59,21.15-2.94,32.01,10.72,1.12,20.93,2.92,30.71,6.39,3.91,1.39,4.76-.03,5.07-3.29,1.58-16.6,7.4-31.73,15.78-45.72,9.79,2.22,18.23,8.19,28.62,9.81-3.47-9.35-6.46-18.03-9.94-26.5-1.28-3.11-.19-4.4,2.08-6.03,16.69-12.03,34.75-15.57,54.49-9.03Z"/>
  <path class="cls-4" d="m572.15,830.76c-13.72,27.76-33.13,49.51-60.76,63.37-14.1,7.07-28.86,12.01-44.51,14.09-23.68,3.16-47.06,2.07-69.29-7.32-19.4-8.2-34.54-21.87-46.59-39.11-15.73-22.51-21.85-48.16-24.96-74.84-1.31-11.29-1.32-22.63-.59-33.93.23-3.47-1.04-4.66-3.94-5.6-6.2-1.99-12.27-4.33-18.08-7.3-1.63-.83-2.88-1.81-2.35-3.83.53-2.01,2.09-2.34,3.92-2.17,15.44,1.36,30.82,3.1,46.05,6.03,9.65,1.85,19.33,3.67,28.88,5.99,12.33,2.99,24.61,6.21,36.78,9.79,12.9,3.8,25.7,7.99,38.45,12.27,9.43,3.17,18.76,6.64,28.05,10.18,10.33,3.94,20.73,7.77,30.81,12.29,14.39,6.45,28.92,12.57,43.06,19.63,15,7.49,29.81,15.23,44.24,23.74,1.63.96,2.86,1.8,2.01,3.81-.93,2.2-2.58,1.93-4.58,1.45-9.05-2.18-17.65-5.81-26.61-8.56Zm-7.8-2.16c-76.71-26.86-154.41-49.07-231.2-76.48,1.94,9.67,2.84,18.74,4.66,27.72.76,3.71,2.58,5.28,5.37,6.02,6.09,1.63,12.16,3.29,18.23,5.03,18.49,5.31,36.87,10.99,55.25,16.69,19.99,6.2,39.73,13.08,59.43,20.06,20.76,7.36,41.15,15.78,61.68,23.8,2.41.94,4.52.94,6.42-.86,7.14-6.73,13.91-13.8,20.17-21.99Zm-133.23,19.37c-11.84-11.46-52.8-14.19-68.04-4.78,1.07,1.45,2.15,2.9,3.23,4.36,12.18,16.58,27.65,29.06,47.49,34.78,18.02,5.19,36.63,5.81,55.28,3.25,13.55-1.86,26.54-5.56,38.97-11.25-.52-2.9-2.47-4.35-4.1-5.91-9.57-9.11-21.33-12.87-34.23-13.05-15.53-.22-30.56,2.53-45.1,8.19-3.16,1.23-6.33,3.99-10.98,1.71,2.36-9.15,11.46-11.51,17.5-17.29Z"/>
  <path class="cls-4" d="m540.46,665.05c-2.49-14.8-2.44-28.55-.41-42.3,4.57-30.8,17.26-57.33,41.81-77.19,15.61-12.63,33.73-19.45,53.92-18.42,24.99,1.28,44.28,14.99,55.26,40.21,9.73,22.34,11.99,45.49,7.51,69.27-5.39,28.61-17.56,53.83-38.58,74.4-.71.69-1.35,1.44-2.15,2.3,3.83,4.09,7.52,8.1,11.29,12.01,1.78,1.85,3.03,4.11,1.22,6.11-1.52,1.68-3.72.67-5.84-.31-7.73-3.58-15.83-6.39-23.4-10.26-8.63-4.41-17.52-8.25-26.47-11.8-18.65-7.4-37.09-15.29-55.88-22.36-11.25-4.24-22.68-8.45-33.18-14.6-1.88-1.1-4.27-1.72-3.66-4.56.56-2.57,2.84-2.46,4.84-2.48,4.31-.05,8.62-.01,13.71-.01Zm93.33-33.78c.49.21.98.58,1.47.57.51-.01.61-.45.14-.82-3.46-8.72-7.13-17.38-10.23-26.23-.72-2.05-3.46-4.85.59-7.3,14.64-8.89,30.01-12.42,46.74-7.22,1.57.49,2.91,1.17,4.73.51-3.07-9.13-6.41-17.87-12.27-25.45-8.26-10.69-18.89-16.54-32.56-15.83-19.26,1-35.5,8.67-48.66,22.79-18.68,20.04-28.69,44.1-32.75,70.89-1.09,7.19-1.95,14.4-1.43,21.81,11.92,1.59,23.34,3.87,35.2,7.54,2.1-18.98,7.37-36.75,18.25-52.55,2.61.32,4.71,1.68,7,2.57,7.87,3.04,15.84,5.84,23.78,8.73Z"/>
  <path class="cls-1" d="m742.51,571.59c-.57,14.16-2.19,29.04-8.21,43.22-1.15,2.7-1.63,5.29-4.97,4.82-3.49-.49-3.41-3.5-3.46-6.25-.2-11.83-.89-23.62-2.83-35.31-4.81-29.02-16.26-54.58-38.62-74.53-4.83-4.31-5.78-8.82-3.1-12.59,3.52-4.96,6.9-5.22,13.46-2.78,16.14,6.03,27.84,16.96,35.83,31.87,4.83,9,8.04,18.61,9.67,28.87,1.15,7.23,1.99,14.41,2.23,22.68Z"/>
  <path class="cls-4" d="m765.98,842.86c9.17,10.97,9.69,26.53-1.26,37.55-8.26,8.31-24.19,11.91-34.31,7.79-2.09-.85-4.36-1.26-4.46-4.47-.11-3.3,2.22-3.73,4.28-4.55,5.21-2.1,10.54-3.99,15.2-7.19,8.87-6.09,8.87-14.13.12-20.36-4.88-3.47-5.8-7.5-3.07-13.66,2.82-6.36,7.13-11.58,12.79-15.55,13.65-9.58,28.96-14.73,45.47-16.51.66-.07,1.33-.12,1.99-.1,3.14.07,6.89-.48,8.03,3.35,1.13,3.81-2.56,5.02-4.99,6.46-13.86,8.21-27.16,17.22-39.79,27.24Z"/>
  <path class="cls-4" d="m483.12,755.22c-8.63.23-16.1-1.74-22.59-6.78-2-1.55-5.37-2.66-4.25-5.93.95-2.78,4.07-2.32,6.54-2.42,10.04-.43,19.93-1.63,28.38-7.72,4.04-2.91,7.74-6.28,11.6-9.45,1.8-1.48,3.51-3.09,5.41-4.41,4.8-3.35,9.46-1.25,9.82,4.54.8,12.87-6.03,21.34-16.55,27.31-5.78,3.28-12.04,5.34-18.36,4.86Z"/>
  <path class="cls-1" d="m574.65,778.61c-.57,1.93-.6,4.42-3.18,5.46-2.72,1.1-5.37.98-7.33-1.2-2.61-2.92-5.06-6.04-7.19-9.32-1.51-2.33-.71-4.88,1.09-6.86,2-2.21,4.85-2.91,7.24-1.41,4.85,3.05,8.37,7.35,9.38,13.34Z"/>
  <path class="cls-1" d="m627.76,747.59c-.36,2.76-1.06,4.99-3.84,6.01-3.61,1.32-13.23-1.4-15.16-4.42-2.32-3.62-1.36-7.34,2.4-9.28,3.51-1.82,13.81,1.16,15.61,4.59.53,1,.7,2.19.98,3.1Z"/>
  <path class="cls-1" d="m664.64,812.23c-2.99-.09-4.99-1.53-5.95-4.38-1.15-3.44,1.81-12.65,4.72-14.5,2.52-1.6,5.23-1.56,7.43.29,5.61,4.73-.02,9.65-.23,14.47-.12,2.83-2.97,4.17-5.98,4.11Z"/>
  <path class="cls-1" d="m271.88,686.39c-3.23.2-5.67-1.41-6.6-4.2-.89-2.67-.43-5.46,2.49-7.29,3.1-1.94,6.36-3.42,9.91-4.21,2.94-.66,5.24.45,6.62,3.13,1.33,2.6,1.13,5.09-.93,7.33-2.54,2.75-7.87,5.22-11.48,5.25Z"/>
  <path class="cls-1" d="m341.94,655.54c.05,3.31-2.98,6.33-6.37,6.35-4.4.02-9.77-6.04-9.65-11.04.1-3.96,2.55-6.05,6.21-6.42,3.7-.37,9.74,6.71,9.81,11.11Z"/>
  <path class="cls-1" d="m345.41,710.18c-4.75-.05-9.16-3.59-9.2-7.37-.04-3.41,2.88-6.31,6.37-6.33,5.63-.04,10.63,3.66,10.46,7.75-.16,3.88-2.88,6-7.63,5.95Z"/>
  <path class="cls-3" d="m467.9,519.58c-19.75-6.54-37.8-3-54.49,9.03-2.26,1.63-3.35,2.92-2.08,6.03,3.48,8.47,6.47,17.15,9.94,26.5-10.4-1.61-18.83-7.59-28.62-9.81-8.38,13.98-14.2,29.11-15.78,45.72-.31,3.26-1.16,4.68-5.07,3.29-9.78-3.48-19.99-5.27-30.71-6.39-.65-10.86.59-21.53,2.94-32.01,5.53-24.65,16.13-46.73,34.47-64.54,12.85-12.48,28.33-19.11,46.29-19.58,12.85-.34,22.84,5.38,30.82,15.09,6.31,7.67,9.95,16.66,12.77,26.04-.32.09-.48.3-.48.64Z"/>
  <path class="cls-1" d="m468.39,518.94c.1.23.2.46.3.69-.26-.02-.53-.04-.79-.05,0-.33.16-.54.48-.64Z"/>
  <path class="cls-3" d="m564.35,828.6c-6.26,8.19-13.03,15.26-20.17,21.99-1.9,1.79-4.01,1.8-6.42.86-20.53-8.02-40.92-16.44-61.68-23.8-19.7-6.98-39.44-13.85-59.43-20.06-18.38-5.7-36.75-11.38-55.25-16.69-6.06-1.74-12.14-3.4-18.23-5.03-2.79-.75-4.61-2.31-5.37-6.02-1.83-8.98-2.72-18.05-4.66-27.72,76.8,27.41,154.49,49.62,231.2,76.48Z"/>
  <path class="cls-1" d="m431.12,847.97c-6.04,5.78-15.13,8.14-17.5,17.29,4.65,2.27,7.83-.49,10.98-1.71,14.54-5.66,29.58-8.41,45.1-8.19,12.91.18,24.66,3.94,34.23,13.05,1.64,1.56,3.59,3.01,4.1,5.91-12.43,5.68-25.41,9.38-38.97,11.25-18.65,2.57-37.26,1.95-55.28-3.25-19.84-5.72-35.31-18.19-47.49-34.78-1.07-1.46-2.15-2.91-3.23-4.36,15.24-9.4,56.2-6.68,68.04,4.78Z"/>
  <path class="cls-3" d="m633.79,631.26c-7.93-2.89-15.9-5.68-23.78-8.73-2.29-.89-4.39-2.25-7-2.57-10.89,15.8-16.15,33.57-18.25,52.55-11.86-3.67-23.28-5.95-35.2-7.54-.52-7.41.34-14.62,1.43-21.81,4.05-26.8,14.07-50.85,32.75-70.89,13.16-14.12,29.4-21.79,48.66-22.79,13.67-.71,24.3,5.13,32.56,15.83,5.86,7.59,9.2,16.32,12.27,25.45-1.81.66-3.16-.02-4.73-.51-16.73-5.2-32.1-1.67-46.74,7.22-4.05,2.46-1.31,5.25-.59,7.3,3.1,8.85,6.77,17.5,10.23,26.23-.54.08-1.07.17-1.61.25Z"/>
  <path class="cls-1" d="m633.79,631.26c.54-.08,1.07-.17,1.61-.25.47.37.38.82-.14.83-.49,0-.98-.37-1.47-.57Z"/>
</svg>